<?xml version="1.0" encoding="UTF-8" standalone="no"?>
<svg
   xmlns:dc="http://purl.org/dc/elements/1.1/"
   xmlns:cc="http://creativecommons.org/ns#"
   xmlns:rdf="http://www.w3.org/1999/02/22-rdf-syntax-ns#"
   xmlns:svg="http://www.w3.org/2000/svg"
   xmlns="http://www.w3.org/2000/svg"
   viewBox="0 0 3866.6667 2666.6667"
   height="2666.6667"
   width="3866.6667"
   xml:space="preserve"
   id="svg2"
   version="1.1"><metadata
     id="metadata8"><rdf:RDF><cc:Work
         rdf:about=""><dc:format>image/svg+xml</dc:format><dc:type
           rdf:resource="http://purl.org/dc/dcmitype/StillImage" /></cc:Work></rdf:RDF></metadata><defs
     id="defs6"><clipPath
       id="clipPath28"
       clipPathUnits="userSpaceOnUse"><path
         id="path26"
         d="m 25747.1,6310.1 c -50.1,-208.1 -104.2,-411.9 -162.6,-609.5 -218.9,-740.8 -450.2,-1450 -669.5,-2072 -719.2,-557.2 -1750.8,-701.3 -2756.6,-561.6 -554.3,76.9 -1085.5,278.1 -1602.1,485.5 -687.3,275.9 -1390.8,490 -2113.1,644.1 -582.5,124.2 -1169.9,222.7 -1752.9,343.8 -715.4,148.7 -1081.1,647.1 -1583.7,1104.7 -514.9,468.6 -1177.5,686.1 -1857.9,840.2 -786.4,178.2 -2378.2,824.4 -3177.7,940.3 -1385.69,201 -3298.08,-2119.7 -4084.01,-934.3 -470.82,710.1 -138.53,3770.4 -138.53,3770.4 0,1007.3 -748.77,789.4 -708.72,2535.7 27.98,1220.9 441.05,2070.9 1259.95,3008.2 2165.83,2478.8 5368.71,2443.2 7093.91,1215.9 640.4,-455.7 905.9,-964.6 1702.1,-1234.3 740.9,-251 1570.5,-181.2 2324.1,-23.1 1016.1,213.2 2020.1,578.8 3058.9,529.7 1312.1,-62.1 2561.2,-843.6 3148.5,-1970 487.8,-935.7 516.7,-2002.4 572.1,-3025.5 138.4,-2550 1173.8,-3140.8 1447.8,-4988.2 z" /></clipPath></defs><g
     transform="matrix(1.3333333,0,0,-1.3333333,0,2666.6667)"
     id="g10"><g
       transform="scale(0.1)"
       id="g12"><g
         transform="scale(1.77914)"
         id="g14"><path
           id="path16"
           style="fill:#242424;fill-opacity:1;fill-rule:nonzero;stroke:none"
           d="M 16300,0 H 0 V 11241.4 H 16300 V 0" /></g><g
         transform="scale(1.09963)"
         id="g18"><path
           id="path20"
           style="fill:#f7cc7f;fill-opacity:1;fill-rule:nonzero;stroke:none"
           d="m 15097.1,4490.05 -983.5,-1584.81 -28.6,-200.51 2215,1403.46 -1202.9,381.86" /></g><g
         id="g22"><g
           clip-path="url(#clipPath28)"
           id="g24"><g
             transform="scale(1.57958)"
             id="g30"><path
               id="path32"
               style="fill:#f48c7f;fill-opacity:1;fill-rule:nonzero;stroke:none"
               d="m 15021.2,9068.13 c -371.8,713.11 -1162.6,1207.87 -1993.2,1247.17 -657.7,31.1 -1293.3,-200.4 -1936.5,-335.36 -477.1,-100.1 -1002.3,-144.3 -1471.39,14.62 -504.06,170.74 -672.14,492.94 -1077.57,781.44 -1092.19,777 -3119.87,799.5 -4491.02,-769.8 -518.43,-593.37 -779.94,-1131.48 -797.65,-1904.44 -25.35,-1105.55 448.68,-967.6 448.68,-1605.3 0,0 -325.58,-2076.03 -27.52,-2525.59 497.56,-750.45 1823.48,857.39 2700.73,730.14 506.15,-73.38 1513.89,-482.47 2011.74,-595.29 430.75,-97.56 850.23,-235.25 1176.2,-531.91 318.19,-289.7 549.7,-605.23 1002.6,-699.37 368.1,-76.47 1865.3,-293.05 2182.6,-487.28 230.2,-140.99 496.9,-256.53 779.1,-338.51 h 1789.2 c 165.9,60.9 319.8,143.01 456,248.55 138.8,393.78 285.3,842.76 423.9,1311.74 36.9,125.1 71.2,254.12 102.9,385.87 -173.5,1169.55 -829,1543.57 -916.6,3157.9 -35,647.74 -53.3,1323.02 -362.2,1915.42" /></g><g
             transform="scale(1.49837)"
             id="g34"><path
               id="path36"
               style="fill:#f79c8d;fill-opacity:1;fill-rule:nonzero;stroke:none"
               d="m 16300,6830.77 c -38,203.01 -66.5,428.15 -81.3,682.77 -3899.8,656.24 -7872.15,2583.16 -11771.18,3225.26 -59.83,-60.8 -118.68,-124.2 -176.41,-190.3 C 3841.57,10056.9 3579.34,9601.26 3477.69,9033.14 8909.76,9419.03 12271.3,7435.81 16300,6830.77" /></g><path
             id="path38"
             style="fill:#f79c8d;fill-opacity:1;fill-rule:nonzero;stroke:none"
             d="m 13828.4,9260.4 c -43.9,450.8 -261,845.4 -576.1,1085.3 4,47.7 5.9,95.6 5.9,143.7 0,771.2 -498,1409.9 -1140.2,1505.4 -263.2,581.6 -789.9,968.3 -1377.5,968.3 -542.6,0 -1029,-332.1 -1307.58,-834.1 -145.64,56.2 -299.43,85.7 -455.98,85.7 -495.14,0 -931.91,-284.9 -1193.56,-724.4 -206.46,102.9 -431.15,157.6 -662.19,157.6 -569.75,0 -1074.45,-329.1 -1377.62,-835.9 63.19,-143.2 104.89,-312.6 104.89,-550.3 0,0 -66.58,-424.6 -129.91,-1001.3 h 8109.85" /><g
             transform="scale(1.0614)"
             id="g40"><path
               id="path42"
               style="fill:#f79c8d;fill-opacity:1;fill-rule:nonzero;stroke:none"
               d="m 16300,8086.21 c -39.6,175.53 -235.2,329.1 -519.2,422.56 3.6,18.56 5.4,37.22 5.4,55.97 0,300.16 -448.8,548.8 -1027.5,586.02 -237.2,226.39 -711.8,376.93 -1241.3,376.93 -488.8,0 -927.2,-129.34 -1178.2,-324.74 -131.3,21.86 -269.8,33.35 -410.9,33.35 -446.2,0 -839.7,-110.89 -1075.5,-281.98 -186,40.04 -388.5,61.33 -596.7,61.33 -634.93,0 -1180.23,-195.87 -1403.23,-476.35 -491.84,-18.56 -889.01,-209.91 -950.55,-453.09 H 16300" /></g><path
             id="path44"
             style="fill:#f47458;fill-opacity:1;fill-rule:nonzero;stroke:none"
             d="m 11225.8,10092.3 c -1036.6,538.7 -1722.2,897.1 -2813.61,1259.9 -552.7,183.6 -1196.07,738.4 -1763.79,587.9 -357.13,-94.7 -890.87,-219.7 -1312.08,-424.8 210.15,-468.4 512.14,-613.9 512.14,-1253.6 0,0 -152.98,-975.5 -215.69,-1977.6 1603.7,176.6 3205.97,359.8 4809.53,547.6 l 1794.8,214.7 c 287.1,34.3 579.2,53.2 864.5,103.3 168.7,29.7 398,132.1 562.5,34.8 -400.7,237 -800.4,521.8 -1223.7,695.8 -454.2,186.6 -771.6,-18.2 -1214.6,212" /><g
             transform="scale(1.49088)"
             id="g46"><path
               id="path48"
               style="fill:#f79c8d;fill-opacity:1;fill-rule:nonzero;stroke:none"
               d="m 16300,6038.52 c -28.2,124.96 -167.4,234.3 -369.6,300.77 2.6,13.28 3.8,26.49 3.8,39.84 0,213.77 -319.5,390.76 -731.5,417.23 -168.9,161.18 -506.7,268.36 -883.7,268.36 -348,0 -660.1,-92.05 -838.8,-231.18 -93.5,15.58 -192.1,23.76 -292.5,23.76 -317.7,0 -597.9,-78.97 -765.8,-200.75 -132.4,28.51 -276.5,43.67 -424.7,43.67 -452.1,0 -840.3,-139.52 -999,-339.13 -350.2,-13.28 -633,-149.51 -676.8,-322.57 H 16300" /></g><g
             transform="scale(1.54723)"
             id="g50"><path
               id="path52"
               style="fill:#f79c8d;fill-opacity:1;fill-rule:nonzero;stroke:none"
               d="m 15916.7,6093.52 c -140.5,39.88 -302.1,62.5 -471.9,62.5 -335.4,0 -636,-88.74 -808.3,-222.78 -90,14.99 -185.1,22.88 -281.8,22.88 -306.1,0 -576.1,-76.08 -737.9,-193.45 -127.6,27.47 -266.5,42.08 -409.3,42.08 -435.5,0 -809.6,-134.37 -962.6,-326.78 -337.4,-12.8 -609.9,-144 -652.1,-310.81 H 16300 c -129.8,289.35 -270.4,573.34 -383.3,926.36" /></g><g
             transform="scale(1.35833)"
             id="g54"><path
               id="path56"
               style="fill:#f47458;fill-opacity:1;fill-rule:nonzero;stroke:none"
               d="m 16300,6618.08 c 0,-420.01 -325.5,-760.57 -726.9,-760.57 -401.5,0 -727,340.56 -727,760.57 0,420.07 325.5,760.58 727,760.58 401.4,0 726.9,-340.51 726.9,-760.58" /></g><g
             transform="scale(1.57958)"
             id="g58"><path
               id="path60"
               style="fill:#86b1f2;fill-opacity:1;fill-rule:nonzero;stroke:none"
               d="m 16197.1,3608.94 c 36.9,125.1 71.2,254.12 102.9,385.87 -105.4,710.69 -388.8,1127.7 -614.7,1707.79 H 3603.57 c -63.25,-636.94 -104.2,-1466.78 71.46,-1731.73 497.56,-750.45 1823.48,857.39 2700.73,730.14 506.15,-73.38 1513.89,-482.47 2011.74,-595.29 430.75,-97.56 850.23,-235.25 1176.2,-531.91 318.19,-289.7 549.7,-605.23 1002.6,-699.37 368.1,-76.47 1865.3,-293.05 2182.6,-487.28 230.2,-140.99 496.9,-256.53 779.1,-338.51 h 1789.2 c 165.9,60.9 319.8,143.01 456,248.55 138.8,393.78 285.3,842.76 423.9,1311.74" /></g><g
             transform="scale(1.57958)"
             id="g62"><path
               id="path64"
               style="fill:#466eb6;fill-opacity:1;fill-rule:nonzero;stroke:none"
               d="m 3675.03,3970.87 c 48.77,-73.56 105.5,-124.46 168.99,-156.56 h 445.42 c 617.83,195.88 1464.7,976.91 2086.32,886.7 506.15,-73.38 1513.89,-482.47 2011.74,-595.29 292.42,-66.22 579.71,-150.99 835.98,-291.41 h 7031.02 c 15.7,59.51 30.9,119.72 45.5,180.5 -105.4,710.69 -388.8,1127.7 -614.7,1707.79 H 3603.57 c -63.25,-636.94 -104.2,-1466.78 71.46,-1731.73" /></g><g
             transform="scale(1.52891)"
             id="g66"><path
               id="path68"
               style="fill:#355389;fill-opacity:1;fill-rule:nonzero;stroke:none"
               d="m 16300,5382.91 c -52.9,117.14 -43.7,377.32 -93.6,505.19 -4070.1,232.65 -8473.98,268.23 -12498.3,-155.01 -0.02,-0.2 -0.04,-0.39 -0.06,-0.52 -0.26,-3.08 -0.53,-6.09 -0.79,-9.16 -0.01,-0.07 -0.02,-0.07 -0.02,-0.13 -2,-22.83 -3.96,-45.79 -5.86,-68.81 1125.62,122.51 2606.98,202.95 3496.81,218.59 3247.12,57.16 5492.82,6.6 8070.72,-345.61 337,-46.04 679.7,-87.38 1031.1,-144.54" /></g><g
             transform="scale(1.55772)"
             id="g70"><path
               id="path72"
               style="fill:#f7cc7f;fill-opacity:1;fill-rule:nonzero;stroke:none"
               d="m 16300,3250.58 h -6210 c 189.5,-167.88 376.7,-284.27 624.5,-335.81 373.3,-77.55 1767.7,-464.72 2089.4,-661.74 233.6,-142.97 829.3,-226.87 1115.4,-310 l 1612.8,134.36 c 168.2,61.76 324.3,145.02 462.4,252.04 107.8,305.7 211.2,618.97 305.5,921.15" /></g><g
             transform="scale(1.56847)"
             id="g74"><path
               id="path76"
               style="fill:#fae0b2;fill-opacity:1;fill-rule:nonzero;stroke:none"
               d="m 16016.9,2697.86 c 94.6,282.89 190.5,585.28 283.1,896.93 -2426.3,-130.07 -4574.4,-88.43 -6641.33,-20.72 162.07,-150.41 303.42,-305.78 466.13,-432.53 409.3,-39.59 818.6,-78.8 1227.9,-116.74 1554.8,-144.15 3109.5,-269.94 4664.2,-326.94" /></g><g
             transform="scale(1.09448)"
             id="g78"><path
               id="path80"
               style="fill:#184655;fill-opacity:1;fill-rule:nonzero;stroke:none"
               d="m 10576.1,16825.4 c 122.1,-127 225.8,-259 301.6,-417.2 0,-0.1 0.1,-0.1 0.1,-0.1 0.1,-0.4 0.3,-0.8 0.5,-1.2 36.8,-76.8 66.9,-159.9 89.5,-251.6 0,0 -0.9,0.3 -2.7,0.9 -85.1,30.1 -156.5,54.2 -227.1,80.4 -190.7,70.9 -523.3,131.2 -835.93,171.7 h -0.18 c -363.38,47.1 -699.79,67.6 -755.16,47 212.34,-49.8 441.95,-59.1 633.82,-157.2 594.15,-304.1 1082.15,-753.4 1358.65,-1444.5 127.5,-319.1 167.5,-658.8 109.1,-1013.5 -8.2,-50 -21,-99.3 -37.2,-174.7 0,0 -0.2,0.2 -0.5,0.6 -0.1,0.1 -0.2,0.2 -0.3,0.3 -416.3,522.5 -863.5,974.3 -1378.95,1376.4 -0.46,0.3 -0.82,0.6 -1.28,1 -18.64,14.5 -37.46,29.1 -56.28,43.5 110.64,-420.5 114.76,-810.4 -67.52,-1214.9 -42.95,101.1 -346.38,913.3 -352.86,911.5 5.3,-47.3 287.8,-1410 28.78,-1935.2 -165.01,-334.7 -543.97,-586.4 -567.48,-596.3 -6.37,831.5 19.29,1193.4 -142.3,1889.3 -0.05,0 -0.05,0.1 -0.05,0.1 -19.52,84 -41.73,172.9 -67.09,268.1 32.13,-638.6 -93.52,-1043.2 -1104.57,-1476.6 181.49,675.1 680.15,1210.4 293.76,2009.5 -1.39,-5 -551.37,-3811.3 -1544.28,-6689.27 -58.76,-170.22 -1226.48,-2083.09 -1280.73,-2259.25 -168.39,96.39 -36.07,941.45 -188.4,1061.87 152.42,392.7 407.16,922.73 602.79,1301.72 460.34,891.93 987.69,2628.23 1263.65,3556.13 216.61,728.1 578.67,2220.6 760.64,2963.6 -97.99,-63.8 -481.63,-738.2 -745.57,-1358.6 -204.99,-481.8 -288.92,-975.4 -481.63,-1476 -48.98,85.1 -163.7,269.8 -208.64,366.9 -241.06,520.8 -279.24,972.4 -138.71,1540.3 108.83,439.6 335.4,838.3 559.87,1218.3 59.32,100.5 6.42,66.9 17.27,117.2 -366.2,-374 -681.6,-776 -978.77,-1227.1 -129.75,482.2 6.48,769.6 152.09,1284.5 -770.81,-435 -449.6,-240 -1231.24,-748.2 12.57,112.8 16.73,210.5 35.15,305.3 93.91,483.1 347.2,942.2 689.17,1245.2 392.28,347.6 1339.68,609.5 1355.61,623.1 -559.82,5.8 -1114.07,-65.7 -1682.52,-229.4 105.67,268.9 262.73,464.4 466.44,595.7 198.27,127.8 414.29,218.7 630.36,329.8 -219.38,84.6 -445.09,179.3 -675.54,258.2 -232.05,79.4 -468.79,143 -725.57,220.1 615.93,617.6 1286.72,620.6 1987.06,387.9 8.3,16.4 6.34,12.5 14.68,28.9 -275.78,226.2 -551.52,452.3 -832.14,682.4 224.07,98.3 450.75,113.8 680.2,65.5 390.13,-82.4 702.5,-318 982.5,-615.8 410.32,-436.4 386.91,-543.3 502.98,-1054 3.79,-16.8 6.77,-33.8 9.59,-50.8 1.58,-9.6 14.49,-10.2 16.84,-0.8 64.74,261.4 444.27,1784.7 1599.61,2014.4 209.23,90.2 428.79,109.1 648.18,71.8 20.8,-3.6 41.6,-8.1 62,-13.8 8.1,-2.2 15,-9 26.9,-16.6 -197.1,-243 -392.53,-484 -591.99,-730 172.96,-40.7 331.03,-77.8 489.19,-115 2.2,-13.3 2.3,-14.1 4.4,-27.4 -28.3,-18.4 -57.86,-34.6 -84.99,-55.1 -326.27,-245.5 -1113.97,-331.4 -1438.77,-579.5 -60.38,-46.1 -225.13,-799.3 -220.05,-805.8 36.74,19.7 1204.54,576.5 1621.36,648.7 474.95,82.4 940.85,79.5 1382.65,-135.5 281.5,-137 511.7,-345.2 677.7,-638.3 9.7,-17 18,-35.2 25,-53.8 3.2,-8.3 1.8,-19 3,-37.9 -474.6,12.6 -945.8,-3.7 -1435.7,-86.9" /></g><g
             transform="scale(1.54746)"
             id="g82"><path
               id="path84"
               style="fill:#184655;fill-opacity:1;fill-rule:nonzero;stroke:none"
               d="m 15395.7,8306.17 c -57.7,115.34 -123,167.89 -135.7,189.97 3.3,2.3 270.7,-74.09 315.4,-114.27 19.1,238.7 -81.3,399.21 -370.2,526.7 386.7,-84.21 742.2,-210.74 1094.8,-381.95 -6.4,40.59 -9.4,67.56 -15,93.92 -39.9,187 -131.8,344.99 -268.4,473.58 -296.1,278.5 -660.9,391.79 -1055.5,410.38 -127.4,5.99 -257.7,-39.96 -386.6,-62.14 49.7,41.37 672.6,227.09 934.6,242.5 45.4,2.68 90.7,6.6 145.2,10.62 -96.1,122.68 -215.8,190.05 -356.2,242.85 256.9,148.57 517.1,260.17 785.2,358.37 -4.6,9 -6.1,14.5 -9.5,17.9 -7.7,7.6 -16.1,14.7 -25,20.9 -152.9,107.4 -324.2,159 -509.7,164.4 -291.1,8.4 -552.2,-92.6 -801,-237.5 -218.2,-127.2 -560,-551.15 -576.4,-568.91 -4.2,2.09 19.6,213.82 106.8,389.71 103.8,209 207.7,356.7 339.8,549 10.8,15.7 23.7,29.9 35.6,44.9 -3.7,6.6 -3.7,6.7 -7.3,13.4 -96.1,-16.6 -192.2,-33.1 -297.2,-51.2 61.2,164.7 121.2,326 181.7,488.6 -8.2,1.1 -13.5,2.9 -18.4,2.2 -12.6,-1.6 -25.2,-4 -37.6,-6.9 -130.3,-29.8 -253,-33.2 -351.7,-123.6 -655.7,-401.5 -470.5,-1413.79 -476.3,-1415.76 -9.1,13.52 -17.6,27.49 -27.4,40.48 -169.4,225.21 -178.2,282.82 -497,406.88 -217.5,84.6 -440.4,131.6 -675.5,86.2 -138.2,-26.7 -261.8,-84.1 -367,-181.63 204.1,-51.28 604.6,-159.41 603.8,-169.37 -439.7,-39.63 -814.6,-188.46 -1032.9,-627.45 159.4,18.59 304.9,39.43 450.8,51.46 145.1,11.97 290.7,15.07 430.7,21.8 -98.1,-102.06 -203.7,-175.52 -288.4,-281.87 -87.1,-109.25 -131.5,-258.44 -135.5,-413.68 284.4,205.37 579.6,362.34 893.9,482.6 -6.1,-10.18 -482.3,-347.06 -630.6,-603.98 -129.2,-223.93 -176.9,-505.01 -130.5,-762.86 9.1,-50.55 26.7,-99.42 42.8,-157.58 333.1,421.36 193.4,254.98 535.5,638.02 23.9,-284.79 6.6,-455.84 177.8,-664.05 73.9,286.81 168,553.52 296.2,817.66 4.2,-27.08 6,-7.34 -6.6,-69.69 -47.8,-235.91 -71.9,-473.08 -42.8,-712.86 37.6,-309.72 151.3,-580.3 392.6,-782.94 45.1,-37.8 96.5,-67.74 141.3,-98.76 9.6,518.9 -7.5,891.67 81.9,1397.88 51.2,290.44 170.1,554.47 170.5,554.84 127.5,-334.72 653.6,-781.76 690.2,-1153.04 262,273.03 60.5,583.04 -94.1,874.88 312.5,-382.01 563.4,-799.35 758.1,-1255.28 11.2,10 15.2,12.87 19,17.27 97.9,114.09 144.3,300.7 151.8,501.33 11,287.36 -16.3,498.76 -150,766.07" /></g><g
             transform="scale(1.57963)"
             id="g86"><path
               id="path88"
               style="fill:#184655;fill-opacity:1;fill-rule:nonzero;stroke:none"
               d="m 13872.5,8387.44 0.2,0.18 c 0.2,0.04 1.9,-18.67 1.9,-18.49 127.1,-1134.68 538.9,-2561.64 1229.5,-3568.2 399.1,-581.65 915.6,-1068.48 1580.5,-1320.56 l -240.6,-516.7 c -984.8,458.27 -1638,1340.62 -2063.2,2331.04 -475.7,1107.41 -675.6,2449.19 -688.7,3092.73 h 180.4" /></g><g
             transform="scale(1.09448)"
             id="g90"><path
               id="path92"
               style="fill:#355389;fill-opacity:1;fill-rule:nonzero;stroke:none"
               d="m 7919.43,16311.9 c 0,0 2086.57,-690.8 3957.27,-446.1 1870.7,244.6 -733.9,1539.7 -1957.09,1439 -1223.12,-100.7 -2000.18,-992.9 -2000.18,-992.9" /></g><path
             id="path94"
             style="fill:#355389;fill-opacity:1;fill-rule:nonzero;stroke:none"
             d="m 6528.66,8306.9 411.82,295.9 c 67.92,181.5 126.35,497.8 132.62,638.1 22.48,503.8 -96.79,660.3 -107.95,983.2 l -162.31,-71.5 156.44,203 c -13.12,239.9 -34.99,400.9 -34.99,400.9 0,0 -253.76,-371.4 -626.21,-874.5 -372.45,-503.1 -558.13,-3594.1 -558.13,-3594.1 0,0 899.94,1367.9 1196.01,2127.1 l -407.3,-108.1" /><path
             id="path96"
             style="fill:#355389;fill-opacity:1;fill-rule:nonzero;stroke:none"
             d="m 7773.99,8721.4 501.17,90.9 c 41.4,93.8 70.39,188.2 90.94,276.2 l -265.47,56.5 281.35,18.4 c 36.31,189.7 7.01,1074.7 15.54,1093.2 0,0 -1037.57,-816.8 -1539.89,-1392.2 -362.65,-415.3 -958.99,-1954.5 -958.99,-1954.5 0,0 1516.01,1142.4 1961.42,1413.1 181.67,110.5 302.98,264.3 384.59,424.9 l -470.66,-26.5" /><path
             id="path98"
             style="fill:#355389;fill-opacity:1;fill-rule:nonzero;stroke:none"
             d="m 10934.7,9387.9 -496.3,389.4 777.7,-312.2 c 154.4,41.8 246,65.5 246,65.5 0,0 -298.5,603.2 -1321.8,804.3 -1023.22,201 -1598.81,-111.7 -2280.98,-592.1 C 7226.25,9297 5876.75,7050.6 5876.75,7050.6 l 341.09,-1228.8 c 0,0 1385.67,2435.3 2494.2,2859.8 101.36,38.8 375.44,87.9 484.05,126.4 l -269.47,94.5 374.45,-3.5 c 276.17,94.2 639.44,206.9 912.43,289.8 l -141.7,133.8 348.2,-81.4 c 189.2,55.3 364.2,104.9 514.7,146.7" /><g
             transform="scale(1.32407)"
             id="g100"><path
               id="path102"
               style="fill:#355389;fill-opacity:1;fill-rule:nonzero;stroke:none"
               d="m 16300,10581.1 c 0,0 -493,176.4 -1135.2,-67.4 -642.3,-243.8 -820.7,-856.31 -892,-1165.53 -71.3,-309.22 83.6,-655.54 83.6,-655.54 l 619.8,709.66 c 0,0 105.3,368.09 367,600.01 261.6,231.9 956.8,578.8 956.8,578.8" /></g><g
             transform="scale(1.32407)"
             id="g104"><path
               id="path106"
               style="fill:#355389;fill-opacity:1;fill-rule:nonzero;stroke:none"
               d="m 13605.2,10680.8 c 0,0 685.2,89.3 1517.7,89.3 832.6,0 1177.1,-189 1177.1,-189 0,0 -422.5,671.8 -1388.5,820.7 -966.1,148.8 -1306.3,-721 -1306.3,-721" /></g><g
             transform="scale(1.33086)"
             id="g108"><path
               id="path110"
               style="fill:#355389;fill-opacity:1;fill-rule:nonzero;stroke:none"
               d="m 16300,10423.2 -83.2,103.9 c 0,0 -615.6,-393.4 -771.1,-915.24 -155.4,-521.82 -116,-1105.58 41.8,-1436.91 157.8,-331.32 560.1,-591.64 560.1,-591.64 l 118.4,1277.96 -94.7,260.33 110.4,-157.78 118.3,1459.38" /></g><g
             transform="scale(1.36049)"
             id="g112"><path
               id="path114"
               style="fill:#355389;fill-opacity:1;fill-rule:nonzero;stroke:none"
               d="m 15860.2,12071.4 c 0,0 -257.4,-486.9 -277.9,-756.2 -33.4,-439.9 254.7,-1003.2 254.7,-1003.2 l 108,-115.8 c 0,0 54,1041.8 92.6,1157.5 38.6,115.8 123.5,285.6 123.5,285.6 l -231.5,-146.7 231.5,247 c 0,0 54,509.3 138.9,694.5 0,0 -270.1,-192.9 -439.8,-362.7" /></g><g
             transform="scale(1.46934)"
             id="g116"><path
               id="path118"
               style="fill:#355389;fill-opacity:1;fill-rule:nonzero;stroke:none"
               d="m 15864.1,9062.16 c -435.9,385.83 -1150.3,500.15 -1150.3,500.15 l 483.5,-585.9 52.4,314.39 30.9,-390.61 c 0,0 760.4,-1232.24 911.7,-1505.54 0,0 107.7,1281.66 -328.2,1667.51" /></g><g
             transform="scale(1.51056)"
             id="g120"><path
               id="path122"
               style="fill:#355389;fill-opacity:1;fill-rule:nonzero;stroke:none"
               d="m 15424.2,10114.5 c 0,0 -437.8,83.4 -764.4,-215.41 -326.7,-298.86 -396.2,-611.61 -396.2,-611.61 l 90.3,-27.81 c 0,0 841,312.76 1313.6,194.6 472.6,-118.14 632.5,-340.55 632.5,-340.55 0,0 -236.3,931.28 -875.8,1000.78" /></g><g
             transform="scale(1.09448)"
             id="g124"><path
               id="path126"
               style="fill:#355389;fill-opacity:1;fill-rule:nonzero;stroke:none"
               d="m 7919.43,16311.9 c 0,0 1194.37,-244.7 1856.28,-906.6 661.99,-661.9 287.79,-2158.5 287.79,-2158.5 l -230.23,604.4 100.78,460.4 -227.78,-439.3 -1786.84,2439.6" /></g><g
             transform="scale(1.09448)"
             id="g128"><path
               id="path130"
               style="fill:#355389;fill-opacity:1;fill-rule:nonzero;stroke:none"
               d="m 7847.47,16182.4 c 0,0 -158.29,-604.4 -43.17,-1194.4 115.13,-590 -303.6,-2054.8 -303.6,-2054.8 0,0 711.89,143.5 1037.5,817.2 346.87,717.8 -506.85,2645.8 -506.85,2645.8 l -183.88,-213.8" /></g><g
             transform="scale(1.08999)"
             id="g132"><path
               id="path134"
               style="fill:#355389;fill-opacity:1;fill-rule:nonzero;stroke:none"
               d="m 8016.26,16300 c 0,0 -1319.57,-568.3 -1868.59,-1531.5 -549.03,-963.2 -452.71,-2234.6 -452.71,-2234.6 l 828.35,1367.8 57.79,577.9 48.16,-452.7 1387,2273.1" /></g><g
             transform="scale(1.09448)"
             id="g136"><path
               id="path138"
               style="fill:#355389;fill-opacity:1;fill-rule:nonzero;stroke:none"
               d="m 7916.25,16194.8 c 0,0 -105.52,719.4 -9.6,1151.1 95.92,431.7 613.92,911.3 613.92,911.3 0,0 -76.75,-1582.8 -604.32,-2062.4" /></g><g
             transform="scale(1.04676)"
             id="g140"><path
               id="path142"
               style="fill:#466eb6;fill-opacity:1;fill-rule:nonzero;stroke:none"
               d="m 14479.4,6026.69 947.9,-1278.9 c 0,0 782.4,1188.62 827.5,1218.71 45.2,30.1 -1775.4,60.19 -1775.4,60.19" /></g></g></g><path
         id="path144"
         style="fill:#466eb6;fill-opacity:1;fill-rule:nonzero;stroke:none"
         d="m 9966,7940.1 h -42 l -734.91,-189 -1469.82,-1175.9 c 0,0 1459.32,-62.9 1490.82,-52.5 31.49,10.6 -104.99,714 -104.99,714 l 860.9,703.4" /><g
         transform="scale(1.61248)"
         id="g146"><path
           id="path148"
           style="fill:#3c8f7c;fill-opacity:1;fill-rule:nonzero;stroke:none"
           d="m 16072.5,4410.15 c -55.9,-302.14 -124.3,-598.14 -206,-874.86 -149,-504.5 -307.4,-985.37 -455,-1397.04 -429.6,-257.86 -990.7,-320.74 -1541.6,-236.77 -56.6,863.51 69.6,2240.64 1324.9,4546.19 130.9,240.42 615.6,1106.18 684.3,1108.6 138.4,4.89 325.8,-51.55 345.2,-210.98 75.7,-618.8 54.7,-1817.8 -151.8,-2935.14" /></g><g
         transform="scale(1.59993)"
         id="g150"><path
           id="path152"
           style="fill:#50bfa5;fill-opacity:1;fill-rule:nonzero;stroke:none"
           d="m 16070.7,4444.77 c -56.3,-304.52 -125.2,-602.84 -207.6,-881.73 -150.2,-508.46 -337.9,-1076.49 -486.6,-1491.38 -248.2,-148.95 -530.8,-205.95 -831.3,-211.57 -25.2,-0.44 -50.5,-0.57 -76,-0.32 -200.4,1.82 -408.2,25 -618.5,57.01 -57.1,870.35 70.3,2257.85 1335.4,4581.5 131.9,242.31 399.3,696.1 563.6,948.51 171.4,263.27 444.8,195.47 474,-43.84 76.3,-623.66 55.2,-1832.07 -153,-2958.18" /></g><g
         transform="scale(1.54049)"
         id="g154"><path
           id="path156"
           style="fill:#96d9c9;fill-opacity:1;fill-rule:nonzero;stroke:none"
           d="m 15106.4,1931.85 c 342.4,1008.58 904.3,2824.95 1112,3999.51 47.1,266.15 76.4,504.45 81.6,700.29 l -145.3,-534.96 -1126.6,-4165.16 c 26.3,-0.26 52.3,-0.13 78.3,0.32" /></g><path
         id="path158"
         style="fill:#13375b;fill-opacity:1;fill-rule:nonzero;stroke:none"
         d="m 6025.43,10506.2 c -85.49,259.6 -338.95,792.1 -832.76,1191 -493.82,398.8 -1029.22,375.1 -1029.22,375.1 0,0 122.53,-115.9 272.03,-335.2 l 261,-60.2 -188.04,-52.2 c 162.34,-262.7 337.51,-635.8 417.1,-1105.3 9,-53 18.49,-105 28.44,-156 l 154.34,-33.3 -139.9,-38.5 c 194.82,-939 543.71,-1516.3 772.24,-1834.2 577.03,-802.5 728.25,-1706 728.25,-1706 0,0 -129.83,2802.5 -443.48,3754.8" /><g
         transform="scale(1.26508)"
         id="g160"><path
           id="path162"
           style="fill:#355389;fill-opacity:1;fill-rule:nonzero;stroke:none"
           d="m 14329.7,4614.18 267.6,-18.66 c 218.3,74.46 500,152.32 715.8,217.85 l -425.7,302.2 588.9,-260.78 c 466.3,136.28 823.7,228.76 823.7,228.76 0,0 -236,476.81 -1044.8,635.77 -808.8,158.97 -1228.2,40.48 -1767.4,-339.26 -500.5,-352.39 -1336.2,-2338.2 -1336.2,-2338.2 l -12.4,-761.37 c 0,0 1128.8,1736.41 2005,2071.88 80.2,30.75 247.2,76.44 333.1,106.87 l -147.6,154.94" /></g><g
         transform="scale(1.00269)"
         id="g164"><path
           id="path166"
           style="fill:#13375b;fill-opacity:1;fill-rule:nonzero;stroke:none"
           d="m 15722.1,6180.16 243.4,518.3 c -107.9,186.9 -383.4,574.15 -597.3,696.72 l -51.2,-4526.5 c 0,0 443.9,1196.97 742.7,2353.45 102.6,396.74 240.3,1125.77 102.2,1389.96 l -439.8,-431.93" /></g><g
         transform="scale(1.16161)"
         id="g168"><path
           id="path170"
           style="fill:#13375b;fill-opacity:1;fill-rule:nonzero;stroke:none"
           d="m 16300,4332.53 c 0,0 -542.4,-76.1 -1122.8,-253.7 -601.2,-184.06 -2049,-1606.22 -2049,-1606.22 0,0 42.6,-8.27 112.2,-6.72 306.9,6.8 1189.9,56.13 1733.2,320.42 l -195.9,155.65 334.7,-78.08 c 0.1,0.08 0.2,0.08 0.3,0.17 318.5,205.49 698.1,759.12 845.5,1055.09 l -167.2,61.47 254.7,37.7 c 157.9,182.59 254.3,314.22 254.3,314.22" /></g><path
         id="path172"
         style="fill:#f7cc7f;fill-opacity:1;fill-rule:nonzero;stroke:none"
         d="m 13746.7,7736.7 c -6,0 -12.2,0.6 -18.3,1.9 -52.5,11.2 -87,67.6 -76.9,126.1 l 387.3,2256.5 c 10,58.4 60.7,96.8 113.3,85.6 52.5,-11.2 87,-67.6 76.9,-126.1 l -387.3,-2256.4 c -8.9,-51.7 -49.5,-87.6 -95,-87.6" /><path
         id="path174"
         style="fill:#184655;fill-opacity:1;fill-rule:nonzero;stroke:none"
         d="m 12909.9,10073.5 -397.2,-2278.2 1196.8,-15.7 427.7,2429.1 -1088.2,0.4 c -82.3,-3.5 -128.8,-75.4 -139.1,-135.6" /><path
         id="path176"
         style="fill:#f7cc7f;fill-opacity:1;fill-rule:nonzero;stroke:none"
         d="m 11274.6,7842.9 c 0,-1.3 -0.1,-2.6 -0.1,-3.9 v 0 c -0.1,-71.1 65.1,-128.9 145.8,-129.1 l 2276.8,-4.5 c 80.6,-0.1 146.1,57.4 146.3,128.5 0,3 -0.2,6 -0.4,9 h -2568.4" /><path
         id="path178"
         style="fill:#fae0b2;fill-opacity:1;fill-rule:nonzero;stroke:none"
         d="m 10749,7844.6 c 0,-1.3 -0.1,-2.5 -0.1,-3.8 v 0 c -0.1,-71.2 45.7,-129 102.2,-129.1 l 1595.8,-4.5 c 56.5,-0.2 102.4,57.3 102.5,128.5 0,3 -0.1,6 -0.2,8.9 H 10749" /><path
         id="path180"
         style="fill:#f7a491;fill-opacity:1;fill-rule:nonzero;stroke:none"
         d="m 10920.7,3535.6 c 0,0 136.3,-428.2 136.5,-429 10.6,-50.8 16.9,-180.5 33.6,-223.9 62.8,-163 672.1,417.8 481.7,427.5 -17.3,0.8 -104,2.5 -130.2,56.2 -40.4,82.6 -153.8,390 -153.8,390 l -367.8,-220.8" /><path
         id="path182"
         style="fill:#13375b;fill-opacity:1;fill-rule:nonzero;stroke:none"
         d="m 11073.8,2776 c -76,33.7 -29,369.5 -29,369.5 0,0 202,-25.1 284.4,20.9 82.4,46.1 190.6,256.6 190.6,256.6 392.9,18 803.3,-91.3 787.4,-204.7 0,0 -1157.5,-476 -1233.4,-442.3" /><g
         transform="scale(1.09945)"
         id="g184"><path
           id="path186"
           style="fill:#3c8f7c;fill-opacity:1;fill-rule:nonzero;stroke:none"
           d="M 16211.4,2615.75 H 3332.96 c -48.93,0 -88.59,-39.65 -88.59,-88.59 v -9.73 c 0,-48.93 39.66,-88.59 88.59,-88.59 H 16211.4 c 48.9,0 88.6,39.66 88.6,88.59 v 9.73 c 0,48.94 -39.7,88.59 -88.6,88.59" /></g><path
         id="path188"
         style="fill:#3c8f7c;fill-opacity:1;fill-rule:nonzero;stroke:none"
         d="m 10354.4,8916.5 c 0,0 -992.08,246.7 -1514.39,246.7 -450.62,0 149.6,-504 149.6,-504 0,0 1007.88,-199.4 1023.59,-199.4 15.8,0 341.2,456.7 341.2,456.7" /><path
         id="path190"
         style="fill:#355389;fill-opacity:1;fill-rule:nonzero;stroke:none"
         d="m 6765.83,3705.3 h -261.59 v 1938.5 h 261.59 V 3705.3" /><path
         id="path192"
         style="fill:#13375b;fill-opacity:1;fill-rule:nonzero;stroke:none"
         d="M 6871.21,3273.8 H 6440.85 V 3778 c 0,39.6 30.69,71.7 68.55,71.7 h 293.26 c 37.86,0 68.55,-32.1 68.55,-71.7 v -504.2" /><path
         id="path194"
         style="fill:#13375b;fill-opacity:1;fill-rule:nonzero;stroke:none"
         d="m 5075.59,2932.6 1391.71,608.3 3.31,-262.7 -1001.22,-345.6 0.09,-56.7 h -393.81 l -0.08,56.7" /><path
         id="path196"
         style="fill:#13375b;fill-opacity:1;fill-rule:nonzero;stroke:none"
         d="m 8236.18,2932.7 0.04,-56.7 -393.93,-0.2 0.15,56.9 -1009.63,341.6 5.5,270.9 1397.87,-612.5" /><path
         id="path198"
         style="fill:#13375b;fill-opacity:1;fill-rule:nonzero;stroke:none"
         d="m 6844.92,2871.8 v -47.1 H 6435.6 v 47.1 h 93.47 v 669 h 256.22 l -26.85,-669 h 86.48" /><path
         id="path200"
         style="fill:#13375b;fill-opacity:1;fill-rule:nonzero;stroke:none"
         d="m 6844.65,2919.5 h -410.76 v -94.4 h 410.76 v 94.4" /><path
         id="path202"
         style="fill:#f7cc7f;fill-opacity:1;fill-rule:nonzero;stroke:none"
         d="M 12329.4,6390.4 H 9330.26 V 7441.2 H 12329.4 V 6390.4" /><path
         id="path204"
         style="fill:#b75742;fill-opacity:1;fill-rule:nonzero;stroke:none"
         d="m 8004.05,6208.4 c -767.91,117.2 -1191.31,-109 -1555.06,125.4 -230.12,148.3 -163.67,1412.9 -325.46,1952.7 -33.21,110.8 -119.34,168.4 -229.38,191.6 -360.06,75.7 -677.64,-249 -602.34,-609.1 l 527.25,-2522.1 2845.15,-52.5 c 0,0 107.76,796.8 -660.16,914" /><path
         id="path206"
         style="fill:#b75742;fill-opacity:1;fill-rule:nonzero;stroke:none"
         d="M 15378.8,7695.7 H 13741 v 1816.2 h 1637.8 V 7695.7" /><path
         id="path208"
         style="fill:#f47458;fill-opacity:1;fill-rule:nonzero;stroke:none"
         d="M 14116.2,7695.7 H 13741 v 1816.2 h 375.2 V 7695.7" /><path
         id="path210"
         style="fill:#fae0b2;fill-opacity:1;fill-rule:nonzero;stroke:none"
         d="m 14551.6,7695.6 h -316.3 v 1491.2 h 316.3 V 7695.6" /><path
         id="path212"
         style="fill:#f7cc7f;fill-opacity:1;fill-rule:nonzero;stroke:none"
         d="m 14551.6,7695.6 h 1119 v 1491.2 h -1119 V 7695.6" /><path
         id="path214"
         style="fill:#fae0b2;fill-opacity:1;fill-rule:nonzero;stroke:none"
         d="m 13630.5,3401.7 h -2348.4 v 4099.5 h 2348.4 V 3401.7" /><path
         id="path216"
         style="fill:#184655;fill-opacity:1;fill-rule:nonzero;stroke:none"
         d="m 9349.79,2876 h -258.68 v 4697.9 h 258.68 V 2876" /><path
         id="path218"
         style="fill:#184655;fill-opacity:1;fill-rule:nonzero;stroke:none"
         d="m 12655.4,2875.9 h -238.3 v 527.6 h 238.3 v -527.6" /><path
         id="path220"
         style="fill:#184655;fill-opacity:1;fill-rule:nonzero;stroke:none"
         d="m 15379.6,2876.2 h -238.2 v 527.3 h 238.2 v -527.3" /><path
         id="path222"
         style="fill:#f7a491;fill-opacity:1;fill-rule:nonzero;stroke:none"
         d="m 11292.2,3582.8 c 0,0 694.5,-504.7 695.1,-505.3 37.4,-36 115.6,-139.6 153.9,-166.1 143.7,-99.3 320,723.8 157.2,624.5 -14.7,-9 -87.3,-56.4 -139.2,-26.8 -79.9,45.5 -654.4,435.8 -654.4,435.8 l -212.6,-362.1" /><path
         id="path224"
         style="fill:#13375b;fill-opacity:1;fill-rule:nonzero;stroke:none"
         d="m 12200.2,2876 c -81.8,-15 -244.4,223.9 -244.4,223.9 0,0 180.4,95.7 222.6,180.2 42.1,84.5 117.6,255.2 117.6,255.2 314.5,236.2 835.1,323.4 885.9,220.7 0,0 -900,-865.1 -981.7,-880" /><path
         id="path226"
         style="fill:#355389;fill-opacity:1;fill-rule:nonzero;stroke:none"
         d="M 10063.9,6519.6 C 9862.44,6691.1 8694.33,6960.3 7829.16,7166 l -0.6,1 -186.28,188.6 -45.13,-10.5 -724.03,39.1 137.53,-1045 2651.71,-606.9 c 63.72,-211.7 126.65,-303.7 319.65,-753.8 C 10215.6,4433.7 10897.5,3429 10897.5,3429 l 469.2,231.9 c 0,0 -1127.2,2709.3 -1302.8,2858.7" /><path
         id="path228"
         style="fill:#466eb6;fill-opacity:1;fill-rule:nonzero;stroke:none"
         d="M 11943,3765.3 9670.24,5779.5 7668.17,7078.2 7689,7364.6 c 0,0 -1260.07,245.7 -1260.6,245.8 -7.52,1.5 -98.85,-259.3 -108.14,-285.1 -36.2,-100.7 -68.33,-203.4 -86.01,-309.1 -38.26,-228.8 3.16,-475.1 154.48,-657.5 459.2,-553.5 1022.71,-806 1330.43,-909.7 534.42,-180.3 833.83,-339.7 1708.24,-720.5 0,0 422.44,-400 781.2,-604.5 203.2,-115.9 821.4,-427.9 1337.4,-719.4 l 397,360.7" /><path
         id="path230"
         style="fill:#fae0b2;fill-opacity:1;fill-rule:nonzero;stroke:none"
         d="m 15414.8,3401.7 h -3916 v 4099.5 h 3916 V 3401.7" /><path
         id="path232"
         style="fill:#184655;fill-opacity:1;fill-rule:nonzero;stroke:none"
         d="m 11552,2874 h -315.5 V 7592.2 H 11552 V 2874" /><path
         id="path234"
         style="fill:#f48c7f;fill-opacity:1;fill-rule:nonzero;stroke:none"
         d="m 10661.5,8472.9 c -141.7,84.9 -303.9,-150.9 -335,-256.4 384.5,-139.4 736.8,-219.2 773.4,-292.2 l 230.9,126 c -126.4,96.8 -567.1,386.9 -669.3,422.6" /><path
         id="path236"
         style="fill:#f48c7f;fill-opacity:1;fill-rule:nonzero;stroke:none"
         d="m 11514.6,7912.1 c 165.8,-57 568.2,-330.3 632.7,-423.1 57.4,-82.6 163.6,-362.9 163.6,-362.9 -52.1,-68.8 -157.6,255.7 -163.8,246 -16.4,-25.9 149.6,-340.4 115.5,-362.9 -67.8,-44.8 -184.2,340.3 -195,287.2 -10.9,-53 154.2,-339.6 114.3,-366 -40,-26.4 -160.5,268.7 -200.2,306.4 -49.5,46.9 125.7,-320.9 92.2,-340.8 -27.2,-16.2 -130.7,186.5 -223.5,384.8 -8.2,17.6 -54.5,78 -41.9,-32.3 3.2,-27.6 21.5,-89.2 15.5,-107.5 -11.7,-35.6 -43.1,-3.1 -61.5,34.9 l -122,278.6 c 0,0 -43.7,90.1 -36.7,133.9 7,43.7 -523.2,288.7 -523.2,288.7 l 434,35" /><path
         id="path238"
         style="fill:#f7a491;fill-opacity:1;fill-rule:nonzero;stroke:none"
         d="m 8960.74,9005.7 c 0,0 301.84,-68.2 543.31,-10.5 241.47,57.7 535.45,99.7 535.45,-120.7 0,-220.5 -598.44,-278.3 -598.44,-278.3 0,0 -422.57,10.5 -480.32,409.5" /><path
         id="path240"
         style="fill:#13375b;fill-opacity:1;fill-rule:nonzero;stroke:none"
         d="m 10704.4,9135.5 c -55.2,76.8 -152,114.5 -249.6,119.1 -131.2,129 -524.68,150 -781.02,50.3 0,0 -101.49,-22.7 -190.72,-134.7 -89.25,-112 -132.99,-264.2 -180.23,-330.7 -47.24,-66.5 167.98,-344.7 167.98,-344.7 l 0.9,3.4 c 53.7,-62.6 130.03,-113.3 214.32,-169.7 250.62,-125.1 754.77,-355.7 920.57,92.4 11.9,32 30.3,61.2 55.1,84.6 163.4,154.3 189.6,425.8 42.7,630" /><path
         id="path242"
         style="fill:#3c8f7c;fill-opacity:1;fill-rule:nonzero;stroke:none"
         d="m 12836.9,7782.4 0.3,-71.5 569.2,-1.6 c 24.2,-0.1 38,28.1 23.1,47.4 -43.2,55.9 -118.9,144.9 -183.8,175 -50.9,23.6 -161.1,23.2 -254.3,17.4 -87.1,-5.3 -154.9,-78.6 -154.5,-166.7" /><path
         id="path244"
         style="fill:#13375b;fill-opacity:1;fill-rule:nonzero;stroke:none"
         d="m 10510.2,9229.7 c 0,-92.1 -172.2,-84.9 -338.2,-84.9 -165.9,0 -569.96,-12.4 -569.96,79.6 0,92.1 404.06,253.7 569.96,253.7 166,0 338.2,-156.4 338.2,-248.4" /><path
         id="path246"
         style="fill:#f47458;fill-opacity:1;fill-rule:nonzero;stroke:none"
         d="m 11844.6,7730.2 -23.8,12.1 -346.4,-61.3 c 49.1,-27.3 89.9,-52 111.9,-70 l 360.6,48.8 c -32.6,23.4 -67.1,47.1 -102.3,70.4" /><path
         id="path248"
         style="fill:#f7a491;fill-opacity:1;fill-rule:nonzero;stroke:none"
         d="m 12685.2,7990.8 43.7,43.8 c 0,0 248,0 295.7,-10.5 22.5,-5 194.2,-108.5 178.5,-143.5 -15.8,-35 -180.2,59.5 -180.2,59.5 l -166.3,10.5 -171.4,40.2" /><path
         id="path250"
         style="fill:#184655;fill-opacity:1;fill-rule:nonzero;stroke:none"
         d="M 15833.1,7421.8 H 8749.05 c -68.86,0 -124.68,55.8 -124.68,124.7 v 41 c 0,68.9 55.82,124.7 124.68,124.7 h 7084.05 c 68.9,0 124.7,-55.8 124.7,-124.7 v -41 c 0,-68.9 -55.8,-124.7 -124.7,-124.7" /><path
         id="path252"
         style="fill:#f7a491;fill-opacity:1;fill-rule:nonzero;stroke:none"
         d="m 9623.9,8450.1 1140,-310.5 c 0,0 650.9,-52.5 986.9,-89.3 335.9,-36.7 561.7,-99.7 624.6,-89.2 63,10.5 278.3,73.5 346.5,73.5 33.5,0 258.5,-77.5 258.5,-77.5 0,0 208.5,-192.3 216.6,-224.4 15.7,-63 -240.2,143.1 -240.2,143.1 0,0 208.7,-135.2 203.4,-164.1 -5.2,-28.8 -255.9,85.3 -255.9,85.3 0,0 165.8,-56.4 156.2,-87.9 -3.9,-12.8 -564.3,3.9 -614.2,2.6 -48.4,-1.2 -1671.9,-97.1 -1671.9,-97.1 l -1475.07,141.8 324.57,693.7" /><path
         id="path254"
         style="fill:#50bfa5;fill-opacity:1;fill-rule:nonzero;stroke:none"
         d="m 10418.2,8291.2 c -17.5,11.3 -981.08,315.5 -981.08,315.5 0,0 -510.82,543.2 -615.48,559.1 -813.65,123.4 -1128.93,76.5 -1742.79,-496.1 -545.93,-509.1 -803.15,-1480.3 -803.15,-1480.3 447.2,-273.5 1434,-71.4 1434,-71.4 79.56,16.3 118.86,49 118.86,49 l -56.79,80.2 c 91.22,130.7 624.14,342 881.89,388.4 150.04,27.1 263.17,44.9 351.23,57.7 322.46,-33.8 1247.21,-86.6 1247.21,-86.6 0,0 238.9,637.5 166.1,684.5" /></g></g></svg>